<svg width="9" height="12" viewBox="0 0 9 12" fill="none" xmlns="http://www.w3.org/2000/svg">
<path d="M6.56402 9.93582C6.80886 9.93582 7.04636 9.91624 7.27651 9.87706C7.51156 9.83789 7.73437 9.77913 7.94493 9.70078L8.20936 11.4196C7.92045 11.4881 7.61684 11.542 7.29855 11.5812C6.98025 11.6203 6.65706 11.6399 6.32897 11.6399C5.71197 11.6399 5.14393 11.5542 4.62487 11.3828C4.1058 11.2115 3.65529 10.9544 3.27334 10.6116C2.89628 10.2639 2.60247 9.83544 2.39191 9.32617C2.18134 8.812 2.07606 8.21214 2.07606 7.52658V4.99246C2.07606 4.27752 2.18134 3.65073 2.39191 3.11207C2.60737 2.57342 2.91097 2.12291 3.30272 1.76054C3.69447 1.39818 4.15967 1.1264 4.69832 0.94522C5.23697 0.75914 5.83439 0.6661 6.49057 0.6661C6.77948 0.6661 7.06595 0.688136 7.34996 0.732207C7.63888 0.771382 7.92534 0.825247 8.20936 0.893803L7.94493 2.61994C7.75395 2.54649 7.53849 2.48773 7.29855 2.44365C7.0635 2.39958 6.8309 2.37755 6.60075 2.37755C6.23838 2.37755 5.91274 2.42896 5.62383 2.5318C5.33491 2.62973 5.09007 2.78398 4.8893 2.99455C4.69343 3.20022 4.54407 3.46709 4.44124 3.79518C4.3384 4.12327 4.28699 4.51747 4.28699 4.97777V7.52658C4.28699 7.97709 4.34085 8.35904 4.44858 8.67244C4.55631 8.98094 4.71056 9.22823 4.91133 9.41431C5.11211 9.59549 5.35205 9.72771 5.63117 9.81096C5.91029 9.8942 6.22124 9.93582 6.56402 9.93582ZM6.74031 4.58113V5.66823H0.834713V4.58113H6.74031ZM6.74031 6.60107V7.68817H0.834713V6.60107H6.74031Z" fill="#353535"/>
</svg>
